<?xml version="1.0" encoding="UTF-8"?>
<svg id="ORIN_Logo" xmlns="http://www.w3.org/2000/svg" viewBox="198 154 746 284">
  <g id="ORIN" fill="#333">
    <g id="N">
      <path d="M824.43,214.21v106.91c-27.86-33.61-54.54-68.23-82.49-101.68-1.28-1.53-2.88-3.33-3.51-5.23h-32.5v155.37h-36.75c1.04,2.3,1.64,4.84,1.64,7.52,0,.16-.02.32-.02.48h42.64v-156.87h19.75c1.59,0,16.24,18.77,18.48,21.51,24.04,29.45,47.41,59.56,71.78,89.13,2.19,2.66,4.57,5.57,6.84,8.11.3.33-.04.96,1.14.64v-118.9h23.5v164.36h-20c-2.99-5.21-7.27-9.54-11-14.24-24.31-30.55-47.95-61.43-72.51-91.91-4.69-5.83-9.51-11.73-14.49-17.25v130.89h6.5v-111.41c.99.37,1.79.96,2.5,1.75,19.96,22.1,37.07,49.51,56.52,72.3l28.98,36.1c.33.31,1.48,1.25,1.75,1.25h28.75v-178.85h-37.5Z"/>
      <path d="M840.17,377.08h6.25v-147.88h-7v136.39l-109.15-136.23c-1.15-.82-7.95-1.19-8.35.1v156.12h-47.25l-4.75,7.49h59v-153.87l25.49,30.37,85.76,107.53Z"/>
    </g>
    <g id="I">
      <path d="M656.43,359.27l.07-111.09c-1.16.23-2.36.36-3.59.36-1.37,0-2.7-.16-3.98-.45v111.14c1.18-.24,2.4-.37,3.65-.37,1.32,0,2.61.15,3.85.42Z"/>
      <polygon points="663.9 354.86 670.93 361.58 670.93 245.68 663.89 251.41 663.9 354.86"/>
      <polygon points="641.46 251.35 634.42 245.62 634.42 361.53 641.45 354.81 641.46 251.35"/>
      <path d="M669.18,369.58c-2.36-5.18-7.06-9.08-12.75-10.31-1.24-.27-2.53-.42-3.85-.42-1.25,0-2.46.13-3.64.37-8.32,1.69-14.6,9.06-14.6,17.87,0,10.06,8.18,18.24,18.24,18.24s17.96-7.93,18.22-17.77c0-.16.02-.32.02-.48,0-2.68-.6-5.22-1.64-7.52ZM659.54,382.59c-1.44,1.75-3.52,2.94-5.88,3.22-.35.04-.71.07-1.08.07-2.57,0-4.89-1.09-6.53-2.82-1.53-1.62-2.48-3.79-2.48-6.19,0-.82.12-1.62.33-2.38.58-2.11,1.89-3.92,3.67-5.11,1.13-.76,2.44-1.26,3.85-1.44.08-.01.16-.03.24-.04.3-.03.61-.05.92-.05s.62.02.92.05c2.73.28,5.1,1.77,6.56,3.94.67.99,1.14,2.12,1.37,3.34.1.55.16,1.11.16,1.69,0,2.17-.77,4.17-2.05,5.72Z"/>
      <path d="M656.49,248.18c8.35-1.67,14.66-9.05,14.66-17.88,0-10.06-8.18-18.24-18.24-18.24s-18.24,8.18-18.24,18.24c0,8.69,6.11,15.97,14.26,17.79,1.28.29,2.61.45,3.98.45,1.23,0,2.43-.13,3.59-.36ZM643.83,232.01c-.13-.61-.2-1.24-.2-1.89,0-4.36,3.09-7.99,7.2-8.83.59-.12,1.19-.18,1.81-.18,4.98,0,9.01,4.03,9.01,9.01s-4.03,9.01-9.01,9.01c-4.33,0-7.94-3.05-8.81-7.12Z"/>
    </g>
    <g id="R">
      <path d="M574.58,327.01c49.51-30.97,34.74-106.44-23.97-112.74l-98.69-.06v65.2c0,.91-4.74,5.81-5.75,6.74h-61.25v6h65.75l8.75-10.24v-61.2h91.25c3.91,0,17.05,5.44,20.91,7.59,37.65,20.95,32.76,80.96-7.17,95.57-1.01.37-6.46,1.42-6.48,2.01l42.99,59.7h-9.75c-2.47-3.21-4.88-6.48-7.33-9.68-1.9-2.49-3.77-5.2-5.7-7.77-11.81-15.7-23.57-31.46-35.21-47.25q-.18-.62.73-.74c2.41-.31,4.65-.32,7.36-.64,53.03-6.31,49-87.06-5.33-90.3l-77.27.02v55.2l-12.5,14.24h-71v6.49h73.33l17.14-20.26c.17-1.04-.03-2.17.03-3.22h24.25c2.07,3.44,4.17,6.89,8.54,7.45,13.4,1.73,17.29-15.78,6.66-20.14-6.49-2.66-12.31.86-15.2,6.69h-23.75v-39.97l68.27-.02c50.13,2.21,50.81,74.45-.03,77.95-14.03.97-29.62.09-43.25,0v6.5h32.75c1.43,1.7,1.76,2.41,2.74,3.62,10.59,13.04,20.5,27.05,30.35,40.72l15.65,21.11h-10.75l-41.85-56.34-33.04-.11c-4.17,3.57-9.64,8.05-13.36,11.5v44.46h-24.5v-59.45h-7.5v67.44h39v-47.71l10.85-9.64c8.23.1,16.59.29,24.85.45l42.55,56.9h47.25l-46.31-62.7c-.13-1.46,3.69-2.55,4.96-3.35ZM510.4,268.24c5.74,0,10.42,4.67,10.42,10.42s-4.67,10.42-10.42,10.42-10.42-4.67-10.42-10.42,4.67-10.42,10.42-10.42Z"/>
      <path d="M538.7,299.16c-1.27.06-24.79-.12-35.24-.16-3.19-.01-6.37.02-9.53.14,1.76,1.84,4.32,4.79,5.28,5.95.7-.04,3.63-.03,7.72,0,5.4.04,12.84.11,19.88.16,9.51.07,18.3.09,20.39-.09,33.75-2.88,36.13-56.63.48-61.47h-63.75v24.48h7v-17.49h55.25c11.46,0,20.75,12.9,20.75,23.73,0,17.64-12.58,24.01-28.23,24.75Z"/>
      <path d="M491.92,314.5c-.11,5.65-4.73,10.21-10.41,10.21s-10.42-4.67-10.42-10.42c0-.75.08-1.47.23-2.17h-86.4v6h86.5c4.39,11.52,20.87,7.44,20.49-3.62Z"/>
      <rect x="468.43" y="328.61" width="6.5" height="48.46"/>
      <path d="M481.52,324.72c5.68,0,10.3-4.56,10.41-10.21,0-.07.01-.13.01-.2,0-5.74-4.67-10.42-10.42-10.42-2.19,0-4.22.68-5.9,1.84-1.57,1.08-2.82,2.59-3.61,4.35-.29.65-.52,1.34-.67,2.05-.15.7-.23,1.43-.23,2.17,0,5.74,4.67,10.42,10.42,10.42ZM476.74,310.82c1.08-1.47,2.81-2.44,4.78-2.44.06,0,.11,0,.17,0,.59.02,1.16.12,1.7.3,2.35.78,4.04,3,4.04,5.61,0,.06,0,.11,0,.17-.09,3.19-2.7,5.74-5.91,5.74s-5.92-2.65-5.92-5.92c0-1.3.43-2.5,1.14-3.48Z"/>
      <path d="M510.4,289.07c5.74,0,10.42-4.67,10.42-10.42s-4.67-10.42-10.42-10.42-10.42,4.67-10.42,10.42,4.67,10.42,10.42,10.42ZM510.39,272.74c3.27,0,5.92,2.65,5.92,5.92s-2.65,5.92-5.92,5.92-5.92-2.65-5.92-5.92,2.65-5.92,5.92-5.92Z"/>
    </g>
    <g id="O">
      <path d="M296.17,390.07c-52.59-19.23-75.89-78.21-50.58-128.5,21.99-43.71,73.29-63.5,119.18-44.95,27.05,10.93,47.24,34.14,54.16,62.54h7.5c-6.39-27.05-23.35-50.48-47.66-64.03-73.55-40.98-160.31,20.53-149.77,102.69,7.85,61.22,71.93,99.43,130.32,81.38,33.77-10.44,60.21-38.17,67.12-73.07h-7.5c-12.33,54.26-70.92,82.92-122.76,63.96Z"/>
      <path d="M402.18,279.15h7.25c-11.98-46.64-65.34-71.79-110.12-55.33-44.8,16.47-67.21,68.93-48.31,112.96,27.66,64.42,123.21,67.65,153.79,3.92,2.23-4.64,3.9-9.6,5.14-14.59h-7.25c-1.87,4.52-3.23,9.12-5.49,13.5-32.93,63.68-133.54,47.72-145.11-23.39-12.91-79.3,88.98-122.69,137.84-60.29,5.46,6.98,9.17,14.95,12.26,23.22Z"/>
      <g>
        <g>
          <path d="M275.99,349.23h105.22v-26.49h-105.22v26.49ZM279.99,326.73h97.22v18.49h-97.22v-18.49Z"/>
          <polygon points="287.23 330.59 287.23 341.6 290.43 341.6 291.23 341.6 291.23 330.36 287.23 330.36 287.23 330.59"/>
          <polygon points="299.67 341.6 299.67 331 299.67 330.36 295.67 330.36 295.67 330.99 295.67 341.6 299.67 341.6"/>
          <polygon points="308.1 330.6 308.1 330.36 304.1 330.36 304.1 341.6 304.93 341.6 308.1 341.6 308.1 330.6"/>
          <path d="M370.16,336.42c0-1.09-.36-2.09-.96-2.91-.9-1.24-2.36-2.05-4.01-2.05-2.74,0-4.97,2.22-4.97,4.97,0,1.74.9,3.26,2.25,4.15.78.51,1.71.82,2.72.82,2.74,0,4.97-2.22,4.97-4.97Z"/>
        </g>
        <g>
          <path d="M381.2,288.03h-105.22v26.49h105.22v-26.49ZM377.2,310.52h-97.22v-18.49h97.22v18.49Z"/>
          <rect x="287.23" y="295.65" width="4" height="11.25"/>
          <rect x="295.67" y="295.65" width="4" height="11.25"/>
          <rect x="304.1" y="295.65" width="4" height="11.25"/>
          <ellipse cx="365.19" cy="301.72" rx="4.97" ry="4.97" transform="translate(-.56 .68) rotate(-.11)"/>
        </g>
        <g>
          <path d="M381.2,253.03h-105.22v26.49h105.22v-26.49ZM377.2,275.52h-97.22v-18.49h97.22v18.49Z"/>
          <path d="M287.65,260.65h-.41v11.25h4v-11.25h-2.73c-.28-.02-.57-.02-.85,0Z"/>
          <path d="M299.67,271.9v-11.25h-1.17c-.28-.02-.57-.02-.85,0h-1.98v11.25h4Z"/>
          <polygon points="308.1 260.65 307.65 260.65 304.1 260.65 304.1 271.9 305.43 271.9 308.1 271.9 308.1 260.65"/>
          <path d="M370.16,266.72c0-1.49-.67-2.81-1.71-3.72-.87-.77-2.01-1.25-3.26-1.25-2.74,0-4.97,2.22-4.97,4.97,0,2.23,1.48,4.09,3.5,4.72.47.15.96.25,1.47.25,2.74,0,4.97-2.22,4.97-4.97Z"/>
        </g>
      </g>
    </g>
  </g>
</svg>